<svg xmlns="http://www.w3.org/2000/svg" xmlns:xlink="http://www.w3.org/1999/xlink" width="220" zoomAndPan="magnify" viewBox="0 0 165 52.499999" height="70" preserveAspectRatio="xMidYMid meet" version="1.0"><defs><g/><clipPath id="c7814f6959"><path d="M 26 28 L 41.828125 28 L 41.828125 30 L 26 30 Z M 26 28 " clip-rule="nonzero"/></clipPath><clipPath id="e083379821"><path d="M 41 23 L 41.828125 23 L 41.828125 30 L 41 30 Z M 41 23 " clip-rule="nonzero"/></clipPath><clipPath id="2551554543"><path d="M 41 23 L 41.828125 23 L 41.828125 25 L 41 25 Z M 41 23 " clip-rule="nonzero"/></clipPath><clipPath id="8d2bb25929"><path d="M 31 13 L 41.828125 13 L 41.828125 25 L 31 25 Z M 31 13 " clip-rule="nonzero"/></clipPath><clipPath id="04a3693e3b"><path d="M 41 18 L 41.828125 18 L 41.828125 20 L 41 20 Z M 41 18 " clip-rule="nonzero"/></clipPath><clipPath id="b654e69ca8"><path d="M 31 8 L 41.828125 8 L 41.828125 20 L 31 20 Z M 31 8 " clip-rule="nonzero"/></clipPath><clipPath id="85cf047db4"><path d="M 41 8 L 41.828125 8 L 41.828125 9 L 41 9 Z M 41 8 " clip-rule="nonzero"/></clipPath><clipPath id="1f1654a0bc"><path d="M 10 7.335938 L 13 7.335938 L 13 10 L 10 10 Z M 10 7.335938 " clip-rule="nonzero"/></clipPath><clipPath id="6e9adf8f12"><path d="M 4.839844 12 L 8 12 L 8 15 L 4.839844 15 Z M 4.839844 12 " clip-rule="nonzero"/></clipPath><clipPath id="71728b9bab"><path d="M 24 27 L 27 27 L 27 30.367188 L 24 30.367188 Z M 24 27 " clip-rule="nonzero"/></clipPath><clipPath id="0414f58330"><path d="M 39 7.335938 L 41.828125 7.335938 L 41.828125 10 L 39 10 Z M 39 7.335938 " clip-rule="nonzero"/></clipPath></defs><g fill="#eb8317" fill-opacity="1"><g transform="translate(0.984746, 32.333448)"><g><path d="M 16.03125 0.4375 C 14.4375 0.4375 12.96875 0.332031 11.625 0.125 C 10.289062 -0.0703125 8.90625 -0.421875 7.46875 -0.921875 C 5.90625 -1.453125 4.679688 -2.3125 3.796875 -3.5 C 2.910156 -4.695312 2.46875 -6.148438 2.46875 -7.859375 L 2.46875 -20.40625 C 2.46875 -21.8125 2.785156 -23.070312 3.421875 -24.1875 C 4.054688 -25.3125 4.875 -26.195312 5.875 -26.84375 C 6.757812 -27.40625 7.847656 -27.875 9.140625 -28.25 C 10.429688 -28.632812 11.640625 -28.875 12.765625 -28.96875 C 13.796875 -29.050781 14.882812 -29.09375 16.03125 -29.09375 C 17.382812 -29.09375 18.5625 -29.039062 19.5625 -28.9375 C 20.5625 -28.84375 21.679688 -28.628906 22.921875 -28.296875 C 24.328125 -27.890625 25.488281 -27.390625 26.40625 -26.796875 C 27.320312 -26.210938 28.085938 -25.390625 28.703125 -24.328125 C 29.347656 -23.242188 29.671875 -21.9375 29.671875 -20.40625 L 29.671875 -7.859375 C 29.671875 -6.265625 29.25 -4.894531 28.40625 -3.75 C 27.570312 -2.601562 26.421875 -1.734375 24.953125 -1.140625 C 22.296875 -0.0859375 19.320312 0.4375 16.03125 0.4375 Z M 16.109375 -4.453125 C 17.085938 -4.453125 17.90625 -4.488281 18.5625 -4.5625 C 19.226562 -4.644531 19.914062 -4.785156 20.625 -4.984375 C 21.332031 -5.191406 21.867188 -5.535156 22.234375 -6.015625 C 22.597656 -6.503906 22.78125 -7.117188 22.78125 -7.859375 L 22.78125 -20.4375 C 22.78125 -21.789062 22.234375 -22.753906 21.140625 -23.328125 C 20.054688 -23.910156 18.367188 -24.203125 16.078125 -24.203125 C 13.773438 -24.203125 12.078125 -23.921875 10.984375 -23.359375 C 9.898438 -22.796875 9.359375 -21.820312 9.359375 -20.4375 L 9.359375 -7.859375 C 9.359375 -7.117188 9.550781 -6.503906 9.9375 -6.015625 C 10.320312 -5.535156 10.878906 -5.191406 11.609375 -4.984375 C 12.316406 -4.785156 13 -4.644531 13.65625 -4.5625 C 14.320312 -4.488281 15.140625 -4.453125 16.109375 -4.453125 Z M 16.109375 -4.453125 "/></g></g></g><g clip-path="url(#c7814f6959)"><path fill="#10375c" d="M 26.710938 28.808594 L 42.140625 28.808594 C 42.277344 28.808594 42.386719 28.921875 42.386719 29.054688 C 42.386719 29.191406 42.277344 29.300781 42.140625 29.300781 L 26.710938 29.300781 C 26.574219 29.300781 26.464844 29.191406 26.464844 29.054688 C 26.464844 28.921875 26.574219 28.808594 26.710938 28.808594 Z M 26.710938 28.808594 " fill-opacity="1" fill-rule="nonzero"/></g><g clip-path="url(#e083379821)"><path fill="#10375c" d="M 41.96875 28.882812 L 47.109375 23.738281 C 47.207031 23.644531 47.363281 23.644531 47.457031 23.738281 C 47.554688 23.835938 47.554688 23.992188 47.457031 24.085938 L 42.316406 29.230469 C 42.21875 29.328125 42.0625 29.328125 41.96875 29.230469 C 41.871094 29.132812 41.871094 28.980469 41.96875 28.882812 Z M 41.96875 28.882812 " fill-opacity="1" fill-rule="nonzero"/></g><g clip-path="url(#2551554543)"><path fill="#10375c" d="M 78.144531 24.160156 L 42.140625 24.160156 C 42.003906 24.160156 41.894531 24.050781 41.894531 23.914062 C 41.894531 23.777344 42.003906 23.667969 42.140625 23.667969 L 78.144531 23.667969 C 78.28125 23.667969 78.390625 23.777344 78.390625 23.914062 C 78.390625 24.050781 78.28125 24.160156 78.144531 24.160156 Z M 78.144531 24.160156 " fill-opacity="1" fill-rule="nonzero"/></g><g clip-path="url(#8d2bb25929)"><path fill="#10375c" d="M 41.96875 24.085938 L 31.679688 13.800781 C 31.582031 13.703125 31.582031 13.546875 31.679688 13.453125 C 31.777344 13.355469 31.933594 13.355469 32.027344 13.453125 L 42.316406 23.738281 C 42.410156 23.835938 42.410156 23.992188 42.316406 24.085938 C 42.21875 24.183594 42.0625 24.183594 41.96875 24.085938 Z M 41.96875 24.085938 " fill-opacity="1" fill-rule="nonzero"/></g><path fill="#10375c" d="M 31.855469 13.871094 L 21.566406 13.871094 C 21.429688 13.871094 21.320312 13.761719 21.320312 13.625 C 21.320312 13.492188 21.429688 13.378906 21.566406 13.378906 L 31.855469 13.378906 C 31.988281 13.378906 32.101562 13.492188 32.101562 13.625 C 32.101562 13.761719 31.988281 13.871094 31.855469 13.871094 Z M 31.855469 13.871094 " fill-opacity="1" fill-rule="nonzero"/><path fill="#10375c" d="M 37.171875 18.945312 L 32.027344 24.085938 C 31.933594 24.183594 31.777344 24.183594 31.679688 24.085938 C 31.582031 23.992188 31.582031 23.835938 31.679688 23.738281 L 36.824219 18.59375 C 36.917969 18.5 37.074219 18.5 37.171875 18.59375 C 37.265625 18.691406 37.265625 18.847656 37.171875 18.945312 Z M 37.171875 18.945312 " fill-opacity="1" fill-rule="nonzero"/><path fill="#10375c" d="M 31.855469 24.160156 L 16.421875 24.160156 C 16.289062 24.160156 16.175781 24.050781 16.175781 23.914062 C 16.175781 23.777344 16.289062 23.667969 16.421875 23.667969 L 31.855469 23.667969 C 31.988281 23.667969 32.101562 23.777344 32.101562 23.914062 C 32.101562 24.050781 31.988281 24.160156 31.855469 24.160156 Z M 31.855469 24.160156 " fill-opacity="1" fill-rule="nonzero"/><g clip-path="url(#04a3693e3b)"><path fill="#10375c" d="M 78.144531 19.015625 L 42.140625 19.015625 C 42.003906 19.015625 41.894531 18.90625 41.894531 18.769531 C 41.894531 18.632812 42.003906 18.523438 42.140625 18.523438 L 78.144531 18.523438 C 78.28125 18.523438 78.390625 18.632812 78.390625 18.769531 C 78.390625 18.90625 78.28125 19.015625 78.144531 19.015625 Z M 78.144531 19.015625 " fill-opacity="1" fill-rule="nonzero"/></g><g clip-path="url(#b654e69ca8)"><path fill="#10375c" d="M 41.96875 18.945312 L 31.679688 8.65625 C 31.582031 8.558594 31.582031 8.40625 31.679688 8.308594 C 31.777344 8.210938 31.933594 8.210938 32.027344 8.308594 L 42.316406 18.59375 C 42.410156 18.691406 42.410156 18.847656 42.316406 18.945312 C 42.21875 19.039062 42.0625 19.039062 41.96875 18.945312 Z M 41.96875 18.945312 " fill-opacity="1" fill-rule="nonzero"/></g><path fill="#10375c" d="M 31.855469 8.730469 L 11.28125 8.730469 C 11.144531 8.730469 11.035156 8.617188 11.035156 8.484375 C 11.035156 8.347656 11.144531 8.238281 11.28125 8.238281 L 31.855469 8.238281 C 31.988281 8.238281 32.101562 8.347656 32.101562 8.484375 C 32.101562 8.617188 31.988281 8.730469 31.855469 8.730469 Z M 31.855469 8.730469 " fill-opacity="1" fill-rule="nonzero"/><path fill="#10375c" d="M 21.742188 8.65625 L 16.597656 13.800781 C 16.5 13.894531 16.34375 13.894531 16.25 13.800781 C 16.152344 13.703125 16.152344 13.546875 16.25 13.453125 L 21.394531 8.308594 C 21.488281 8.210938 21.644531 8.210938 21.742188 8.308594 C 21.835938 8.40625 21.835938 8.558594 21.742188 8.65625 Z M 21.742188 8.65625 " fill-opacity="1" fill-rule="nonzero"/><path fill="#10375c" d="M 16.421875 13.871094 L 6.136719 13.871094 C 6 13.871094 5.890625 13.761719 5.890625 13.625 C 5.890625 13.488281 6 13.378906 6.136719 13.378906 L 16.421875 13.378906 C 16.558594 13.378906 16.667969 13.492188 16.667969 13.625 C 16.667969 13.761719 16.558594 13.871094 16.421875 13.871094 Z M 16.421875 13.871094 " fill-opacity="1" fill-rule="nonzero"/><g clip-path="url(#85cf047db4)"><path fill="#10375c" d="M 52.425781 8.730469 L 42.140625 8.730469 C 42.003906 8.730469 41.894531 8.617188 41.894531 8.484375 C 41.894531 8.347656 42.003906 8.238281 42.140625 8.238281 L 52.425781 8.238281 C 52.5625 8.238281 52.671875 8.347656 52.671875 8.484375 C 52.671875 8.617188 52.5625 8.730469 52.425781 8.730469 Z M 52.425781 8.730469 " fill-opacity="1" fill-rule="nonzero"/></g><path fill="#10375c" d="M 15.21875 23.839844 C 15.257812 23.171875 15.832031 22.664062 16.496094 22.707031 C 17.164062 22.746094 17.671875 23.320312 17.628906 23.988281 C 17.589844 24.652344 17.015625 25.160156 16.347656 25.121094 C 15.683594 25.078125 15.175781 24.503906 15.21875 23.839844 Z M 15.21875 23.839844 " fill-opacity="1" fill-rule="nonzero"/><path fill="#10375c" d="M 20.359375 13.550781 C 20.402344 12.886719 20.976562 12.378906 21.640625 12.417969 C 22.308594 12.460938 22.8125 13.035156 22.773438 13.699219 C 22.734375 14.367188 22.160156 14.875 21.492188 14.832031 C 20.828125 14.792969 20.320312 14.21875 20.359375 13.550781 Z M 20.359375 13.550781 " fill-opacity="1" fill-rule="nonzero"/><g clip-path="url(#1f1654a0bc)"><path fill="#10375c" d="M 10.074219 8.410156 C 10.113281 7.742188 10.6875 7.234375 11.355469 7.277344 C 12.019531 7.316406 12.527344 7.890625 12.488281 8.558594 C 12.445312 9.222656 11.871094 9.730469 11.207031 9.6875 C 10.539062 9.648438 10.03125 9.074219 10.074219 8.410156 Z M 10.074219 8.410156 " fill-opacity="1" fill-rule="nonzero"/></g><g clip-path="url(#6e9adf8f12)"><path fill="#10375c" d="M 4.929688 13.550781 C 4.972656 12.886719 5.542969 12.378906 6.210938 12.417969 C 6.878906 12.460938 7.382812 13.035156 7.34375 13.699219 C 7.300781 14.367188 6.730469 14.875 6.0625 14.832031 C 5.394531 14.792969 4.890625 14.21875 4.929688 13.550781 Z M 4.929688 13.550781 " fill-opacity="1" fill-rule="nonzero"/></g><g clip-path="url(#71728b9bab)"><path fill="#10375c" d="M 24.117188 28.902344 C 24.167969 28.183594 24.792969 27.644531 25.511719 27.695312 C 26.230469 27.746094 26.769531 28.367188 26.71875 29.085938 C 26.667969 29.804688 26.042969 30.34375 25.328125 30.292969 C 24.609375 30.242188 24.066406 29.621094 24.117188 28.902344 M 24.636719 28.9375 C 24.605469 29.371094 24.929688 29.746094 25.363281 29.777344 C 25.796875 29.808594 26.171875 29.480469 26.203125 29.050781 C 26.230469 28.617188 25.90625 28.242188 25.472656 28.210938 C 25.042969 28.179688 24.667969 28.507812 24.636719 28.9375 Z M 24.636719 28.9375 " fill-opacity="1" fill-rule="nonzero"/></g><g clip-path="url(#0414f58330)"><path fill="#10375c" d="M 39.597656 8.324219 C 39.648438 7.609375 40.269531 7.066406 40.988281 7.117188 C 41.707031 7.167969 42.246094 7.792969 42.195312 8.511719 C 42.144531 9.226562 41.523438 9.769531 40.804688 9.71875 C 40.085938 9.667969 39.546875 9.042969 39.597656 8.324219 M 40.113281 8.363281 C 40.082031 8.792969 40.410156 9.167969 40.839844 9.199219 C 41.273438 9.230469 41.648438 8.90625 41.679688 8.472656 C 41.710938 8.042969 41.382812 7.664062 40.953125 7.636719 C 40.519531 7.605469 40.144531 7.929688 40.113281 8.363281 Z M 40.113281 8.363281 " fill-opacity="1" fill-rule="nonzero"/></g><g fill="#eb8317" fill-opacity="1"><g transform="translate(32.146821, 32.605024)"><g><path d="M 3.09375 -28.640625 L 14.703125 -28.640625 C 17.429688 -28.640625 19.539062 -28.441406 21.03125 -28.046875 C 22.519531 -27.648438 23.570312 -27.015625 24.1875 -26.140625 C 24.800781 -25.273438 25.109375 -24.066406 25.109375 -22.515625 L 25.109375 -18.984375 C 25.109375 -18.179688 24.789062 -17.425781 24.15625 -16.71875 C 23.53125 -16.019531 22.789062 -15.535156 21.9375 -15.265625 L 21.9375 -15.046875 C 23.050781 -14.929688 24.070312 -14.453125 25 -13.609375 C 25.925781 -12.773438 26.390625 -11.84375 26.390625 -10.8125 L 26.390625 -6.40625 C 26.390625 -4.070312 25.460938 -2.421875 23.609375 -1.453125 C 21.753906 -0.484375 18.882812 0 15 0 L 3.09375 0 Z M 14.703125 -17 C 15.785156 -17 16.59375 -17.085938 17.125 -17.265625 C 17.65625 -17.441406 18.015625 -17.726562 18.203125 -18.125 C 18.398438 -18.519531 18.5 -19.097656 18.5 -19.859375 L 18.5 -21.28125 C 18.5 -21.957031 18.410156 -22.460938 18.234375 -22.796875 C 18.054688 -23.140625 17.691406 -23.382812 17.140625 -23.53125 C 16.597656 -23.675781 15.738281 -23.75 14.5625 -23.75 L 9.96875 -23.75 L 9.96875 -17 Z M 14.875 -4.90625 C 16.550781 -4.90625 17.742188 -5.09375 18.453125 -5.46875 C 19.160156 -5.851562 19.515625 -6.472656 19.515625 -7.328125 L 19.515625 -9.625 C 19.515625 -10.6875 19.238281 -11.4375 18.6875 -11.875 C 18.144531 -12.3125 17.179688 -12.53125 15.796875 -12.53125 L 9.96875 -12.53125 L 9.96875 -4.90625 Z M 14.875 -4.90625 "/></g></g></g><g fill="#eb8317" fill-opacity="1"><g transform="translate(60.17277, 32.605024)"><g><path d="M 3.09375 -28.640625 L 9.96875 -28.640625 L 9.96875 -4.90625 L 24.0625 -4.90625 L 24.0625 0 L 3.09375 0 Z M 3.09375 -28.640625 "/></g></g></g><g fill="#eb8317" fill-opacity="1"><g transform="translate(85.771272, 32.605024)"><g><path d="M 3.09375 -28.640625 L 9.96875 -28.640625 L 9.96875 0 L 3.09375 0 Z M 3.09375 -28.640625 "/></g></g></g><g fill="#eb8317" fill-opacity="1"><g transform="translate(98.835338, 32.605024)"><g><path d="M 16.015625 0.4375 C 14.429688 0.4375 12.96875 0.332031 11.625 0.125 C 10.289062 -0.0703125 8.898438 -0.421875 7.453125 -0.921875 C 5.898438 -1.453125 4.679688 -2.3125 3.796875 -3.5 C 2.910156 -4.695312 2.46875 -6.148438 2.46875 -7.859375 L 2.46875 -20.390625 C 2.46875 -21.804688 2.785156 -23.070312 3.421875 -24.1875 C 4.054688 -25.300781 4.875 -26.1875 5.875 -26.84375 C 6.75 -27.394531 7.832031 -27.863281 9.125 -28.25 C 10.425781 -28.632812 11.632812 -28.867188 12.75 -28.953125 C 13.78125 -29.046875 14.867188 -29.09375 16.015625 -29.09375 C 17.367188 -29.09375 18.546875 -29.039062 19.546875 -28.9375 C 20.554688 -28.832031 21.675781 -28.617188 22.90625 -28.296875 C 24.320312 -27.878906 25.484375 -27.375 26.390625 -26.78125 C 27.304688 -26.195312 28.070312 -25.378906 28.6875 -24.328125 C 29.332031 -23.234375 29.65625 -21.921875 29.65625 -20.390625 L 29.65625 -12.578125 C 29.65625 -8.222656 28.453125 -5.675781 26.046875 -4.9375 L 32.3125 -4.9375 L 32.3125 0 L 22.90625 0 C 22.582031 0 21.582031 0.0703125 19.90625 0.21875 C 18.226562 0.363281 16.929688 0.4375 16.015625 0.4375 Z M 16.109375 -4.453125 C 17.078125 -4.453125 17.890625 -4.488281 18.546875 -4.5625 C 19.210938 -4.632812 19.898438 -4.773438 20.609375 -4.984375 C 21.316406 -5.191406 21.851562 -5.535156 22.21875 -6.015625 C 22.59375 -6.503906 22.78125 -7.117188 22.78125 -7.859375 L 22.78125 -20.4375 C 22.78125 -21.789062 22.234375 -22.753906 21.140625 -23.328125 C 20.054688 -23.898438 18.363281 -24.1875 16.0625 -24.1875 C 13.769531 -24.1875 12.078125 -23.90625 10.984375 -23.34375 C 9.898438 -22.789062 9.359375 -21.820312 9.359375 -20.4375 L 9.359375 -7.859375 C 9.359375 -7.117188 9.546875 -6.503906 9.921875 -6.015625 C 10.304688 -5.535156 10.867188 -5.191406 11.609375 -4.984375 C 12.316406 -4.773438 13 -4.632812 13.65625 -4.5625 C 14.320312 -4.488281 15.140625 -4.453125 16.109375 -4.453125 Z M 16.109375 -4.453125 "/></g></g></g><g fill="#ffffff" fill-opacity="1"><g transform="translate(3.956627, 49.511485)"><g><path d="M 5.28125 0.15625 C 2.445312 0.15625 1.03125 -0.757812 1.03125 -2.59375 L 1.03125 -7.390625 C 1.03125 -9.328125 2.445312 -10.296875 5.28125 -10.296875 C 8.144531 -10.296875 9.578125 -9.332031 9.578125 -7.40625 L 9.578125 -2.59375 C 9.578125 -1.613281 9.179688 -0.910156 8.390625 -0.484375 C 7.597656 -0.0546875 6.5625 0.15625 5.28125 0.15625 Z M 5.3125 -0.859375 C 7.175781 -0.859375 8.109375 -1.441406 8.109375 -2.609375 L 8.109375 -7.4375 C 8.109375 -8.6875 7.171875 -9.3125 5.296875 -9.3125 C 4.390625 -9.3125 3.691406 -9.171875 3.203125 -8.890625 C 2.722656 -8.609375 2.484375 -8.125 2.484375 -7.4375 L 2.484375 -2.609375 C 2.484375 -1.441406 3.425781 -0.859375 5.3125 -0.859375 Z M 5.3125 -0.859375 "/></g></g></g><g fill="#ffffff" fill-opacity="1"><g transform="translate(15.345944, 49.511485)"><g><path d="M 1.3125 -10.140625 L 4.9375 -10.140625 C 5.800781 -10.140625 6.488281 -10.050781 7 -9.875 C 7.46875 -9.707031 7.78125 -9.5 7.9375 -9.25 C 8.101562 -9 8.1875 -8.65625 8.1875 -8.21875 L 8.1875 -6.859375 C 8.1875 -6.453125 8.070312 -6.132812 7.84375 -5.90625 C 7.613281 -5.6875 7.265625 -5.523438 6.796875 -5.421875 L 6.796875 -5.359375 C 7.347656 -5.265625 7.789062 -5.070312 8.125 -4.78125 C 8.46875 -4.5 8.640625 -4.144531 8.640625 -3.71875 L 8.640625 -2.015625 C 8.640625 -1.273438 8.363281 -0.753906 7.8125 -0.453125 C 7.257812 -0.148438 6.335938 0 5.046875 0 L 1.3125 0 Z M 4.984375 -5.703125 C 5.617188 -5.703125 6.070312 -5.796875 6.34375 -5.984375 C 6.625 -6.179688 6.765625 -6.488281 6.765625 -6.90625 L 6.765625 -8.09375 C 6.765625 -8.476562 6.625 -8.75 6.34375 -8.90625 C 6.0625 -9.0625 5.59375 -9.140625 4.9375 -9.140625 L 2.828125 -9.140625 L 2.828125 -5.703125 Z M 5.046875 -1.046875 C 5.804688 -1.046875 6.34375 -1.125 6.65625 -1.28125 C 6.96875 -1.4375 7.125 -1.703125 7.125 -2.078125 L 7.125 -3.609375 C 7.125 -3.878906 7.066406 -4.09375 6.953125 -4.25 C 6.847656 -4.414062 6.679688 -4.535156 6.453125 -4.609375 C 6.222656 -4.671875 6.019531 -4.707031 5.84375 -4.71875 C 5.664062 -4.738281 5.398438 -4.75 5.046875 -4.75 L 2.828125 -4.75 L 2.828125 -1.046875 Z M 5.046875 -1.046875 "/></g></g></g><g fill="#ffffff" fill-opacity="1"><g transform="translate(25.704166, 49.511485)"><g><path d="M 1.3125 -10.140625 L 2.828125 -10.140625 L 2.828125 -1.0625 L 7.8125 -1.0625 L 7.8125 0 L 1.3125 0 Z M 1.3125 -10.140625 "/></g></g></g><g fill="#ffffff" fill-opacity="1"><g transform="translate(34.609483, 49.511485)"><g><path d="M 1.3125 -10.140625 L 2.828125 -10.140625 L 2.828125 0 L 1.3125 0 Z M 1.3125 -10.140625 "/></g></g></g><g fill="#ffffff" fill-opacity="1"><g transform="translate(39.53104, 49.511485)"><g><path d="M 5.265625 0 C 2.421875 0 1 -0.914062 1 -2.75 L 1 -7.390625 C 1 -9.328125 2.421875 -10.296875 5.265625 -10.296875 C 8.117188 -10.296875 9.546875 -9.332031 9.546875 -7.40625 L 9.546875 -3.21875 C 9.546875 -2.257812 9.082031 -1.472656 8.15625 -0.859375 L 10.65625 -0.859375 L 10.65625 0 Z M 5.296875 -1.015625 C 7.160156 -1.015625 8.09375 -1.597656 8.09375 -2.765625 L 8.09375 -7.4375 C 8.09375 -8.6875 7.15625 -9.3125 5.28125 -9.3125 C 4.863281 -9.3125 4.503906 -9.285156 4.203125 -9.234375 C 3.898438 -9.191406 3.613281 -9.109375 3.34375 -8.984375 C 2.75 -8.703125 2.453125 -8.1875 2.453125 -7.4375 L 2.453125 -2.765625 C 2.453125 -1.597656 3.398438 -1.015625 5.296875 -1.015625 Z M 5.296875 -1.015625 "/></g></g></g><g fill="#ffffff" fill-opacity="1"><g transform="translate(50.87349, 49.511485)"><g><path d="M 4.265625 -10.140625 L 6.015625 -10.140625 L 9.953125 0 L 8.375 0 L 7.21875 -3.078125 L 2.875 -3.078125 L 1.734375 0 L 0.234375 0 Z M 6.84375 -4.125 L 5.125 -8.703125 L 4.984375 -8.703125 L 3.265625 -4.125 Z M 6.84375 -4.125 "/></g></g></g><g fill="#ffffff" fill-opacity="1"><g transform="translate(61.840994, 49.511485)"><g/></g></g><g fill="#ffffff" fill-opacity="1"><g transform="translate(66.215754, 49.511485)"><g><path d="M 1.3125 -10.140625 L 2.828125 -10.140625 L 2.828125 0 L 1.3125 0 Z M 1.3125 -10.140625 "/></g></g></g><g fill="#ffffff" fill-opacity="1"><g transform="translate(71.137308, 49.511485)"><g><path d="M 3.8125 -9.078125 L 0.375 -9.078125 L 0.375 -10.140625 L 8.765625 -10.140625 L 8.765625 -9.078125 L 5.34375 -9.078125 L 5.34375 0 L 3.8125 0 Z M 3.8125 -9.078125 "/></g></g></g><g fill="#ffffff" fill-opacity="1"><g transform="translate(81.058097, 49.511485)"><g/></g></g><g fill="#ffffff" fill-opacity="1"><g transform="translate(85.432857, 49.511485)"><g><path d="M 4.234375 0.15625 C 3.367188 0.15625 2.335938 0.0703125 1.140625 -0.09375 L 1.140625 -1.359375 C 2.347656 -1.097656 3.410156 -0.96875 4.328125 -0.96875 C 5.097656 -0.96875 5.660156 -1.050781 6.015625 -1.21875 C 6.367188 -1.394531 6.546875 -1.71875 6.546875 -2.1875 L 6.546875 -3.5 C 6.546875 -3.9375 6.421875 -4.242188 6.171875 -4.421875 C 5.921875 -4.597656 5.484375 -4.6875 4.859375 -4.6875 L 3.671875 -4.6875 C 2.679688 -4.6875 1.976562 -4.882812 1.5625 -5.28125 C 1.144531 -5.675781 0.9375 -6.289062 0.9375 -7.125 L 0.9375 -7.9375 C 0.9375 -8.488281 1.054688 -8.9375 1.296875 -9.28125 C 1.546875 -9.625 1.957031 -9.878906 2.53125 -10.046875 C 3.113281 -10.210938 3.910156 -10.296875 4.921875 -10.296875 C 5.597656 -10.296875 6.46875 -10.238281 7.53125 -10.125 L 7.53125 -8.984375 C 6.34375 -9.160156 5.4375 -9.25 4.8125 -9.25 C 3.84375 -9.25 3.203125 -9.15625 2.890625 -8.96875 C 2.566406 -8.769531 2.40625 -8.441406 2.40625 -7.984375 L 2.40625 -6.828125 C 2.40625 -6.472656 2.53125 -6.210938 2.78125 -6.046875 C 3.039062 -5.890625 3.484375 -5.8125 4.109375 -5.8125 L 5.328125 -5.8125 C 6.023438 -5.8125 6.566406 -5.726562 6.953125 -5.5625 C 7.347656 -5.394531 7.625 -5.140625 7.78125 -4.796875 C 7.945312 -4.460938 8.03125 -4.007812 8.03125 -3.4375 L 8.03125 -2.703125 C 8.03125 -1.984375 7.894531 -1.414062 7.625 -1 C 7.363281 -0.582031 6.957031 -0.285156 6.40625 -0.109375 C 5.851562 0.0664062 5.128906 0.15625 4.234375 0.15625 Z M 4.234375 0.15625 "/></g></g></g><g fill="#ffffff" fill-opacity="1"><g transform="translate(95.103683, 49.511485)"><g><path d="M 5.28125 0.15625 C 2.445312 0.15625 1.03125 -0.757812 1.03125 -2.59375 L 1.03125 -7.390625 C 1.03125 -9.328125 2.445312 -10.296875 5.28125 -10.296875 C 8.144531 -10.296875 9.578125 -9.332031 9.578125 -7.40625 L 9.578125 -2.59375 C 9.578125 -1.613281 9.179688 -0.910156 8.390625 -0.484375 C 7.597656 -0.0546875 6.5625 0.15625 5.28125 0.15625 Z M 5.3125 -0.859375 C 7.175781 -0.859375 8.109375 -1.441406 8.109375 -2.609375 L 8.109375 -7.4375 C 8.109375 -8.6875 7.171875 -9.3125 5.296875 -9.3125 C 4.390625 -9.3125 3.691406 -9.171875 3.203125 -8.890625 C 2.722656 -8.609375 2.484375 -8.125 2.484375 -7.4375 L 2.484375 -2.609375 C 2.484375 -1.441406 3.425781 -0.859375 5.3125 -0.859375 Z M 5.3125 -0.859375 "/></g></g></g><g fill="#ffffff" fill-opacity="1"><g transform="translate(106.493004, 49.511485)"><g><path d="M 1.3125 -10.140625 L 2.828125 -10.140625 L 2.828125 -1.0625 L 7.8125 -1.0625 L 7.8125 0 L 1.3125 0 Z M 1.3125 -10.140625 "/></g></g></g><g fill="#ffffff" fill-opacity="1"><g transform="translate(115.398325, 49.511485)"><g><path d="M 5.265625 0.15625 C 4.710938 0.15625 4.226562 0.117188 3.8125 0.046875 C 3.40625 -0.0234375 3.003906 -0.148438 2.609375 -0.328125 C 2.191406 -0.515625 1.867188 -0.800781 1.640625 -1.1875 C 1.421875 -1.570312 1.3125 -2.039062 1.3125 -2.59375 L 1.3125 -10.140625 L 2.765625 -10.140625 L 2.765625 -2.609375 C 2.765625 -1.972656 2.976562 -1.519531 3.40625 -1.25 C 3.832031 -0.988281 4.460938 -0.859375 5.296875 -0.859375 C 6.128906 -0.859375 6.75 -0.988281 7.15625 -1.25 C 7.570312 -1.519531 7.78125 -1.972656 7.78125 -2.609375 L 7.78125 -10.140625 L 9.234375 -10.140625 L 9.234375 -2.59375 C 9.234375 -0.757812 7.910156 0.15625 5.265625 0.15625 Z M 5.265625 0.15625 "/></g></g></g><g fill="#ffffff" fill-opacity="1"><g transform="translate(126.740771, 49.511485)"><g><path d="M 3.8125 -9.078125 L 0.375 -9.078125 L 0.375 -10.140625 L 8.765625 -10.140625 L 8.765625 -9.078125 L 5.34375 -9.078125 L 5.34375 0 L 3.8125 0 Z M 3.8125 -9.078125 "/></g></g></g><g fill="#ffffff" fill-opacity="1"><g transform="translate(136.66156, 49.511485)"><g><path d="M 1.3125 -10.140625 L 2.828125 -10.140625 L 2.828125 0 L 1.3125 0 Z M 1.3125 -10.140625 "/></g></g></g><g fill="#ffffff" fill-opacity="1"><g transform="translate(141.583121, 49.511485)"><g><path d="M 5.28125 0.15625 C 2.445312 0.15625 1.03125 -0.757812 1.03125 -2.59375 L 1.03125 -7.390625 C 1.03125 -9.328125 2.445312 -10.296875 5.28125 -10.296875 C 8.144531 -10.296875 9.578125 -9.332031 9.578125 -7.40625 L 9.578125 -2.59375 C 9.578125 -1.613281 9.179688 -0.910156 8.390625 -0.484375 C 7.597656 -0.0546875 6.5625 0.15625 5.28125 0.15625 Z M 5.3125 -0.859375 C 7.175781 -0.859375 8.109375 -1.441406 8.109375 -2.609375 L 8.109375 -7.4375 C 8.109375 -8.6875 7.171875 -9.3125 5.296875 -9.3125 C 4.390625 -9.3125 3.691406 -9.171875 3.203125 -8.890625 C 2.722656 -8.609375 2.484375 -8.125 2.484375 -7.4375 L 2.484375 -2.609375 C 2.484375 -1.441406 3.425781 -0.859375 5.3125 -0.859375 Z M 5.3125 -0.859375 "/></g></g></g><g fill="#ffffff" fill-opacity="1"><g transform="translate(152.972435, 49.511485)"><g><path d="M 1.3125 -10.140625 L 3.140625 -10.140625 L 8.65625 -1.765625 L 8.65625 -10.140625 L 9.984375 -10.140625 L 9.984375 0 L 8.15625 0 L 2.640625 -8.515625 L 2.640625 0 L 1.3125 0 Z M 1.3125 -10.140625 "/></g></g></g><g fill="#eb8317" fill-opacity="1"><g transform="translate(133.841725, 32.28698)"><g><path d="M 10.6875 -28.65625 L 19.078125 -28.65625 L 29.40625 0 L 22.4375 0 L 19.875 -7.546875 L 9.40625 -7.546875 L 6.890625 0 L 0.09375 0 Z M 18.375 -12.140625 L 14.75 -22.921875 L 14.578125 -22.921875 L 10.953125 -12.140625 Z M 18.375 -12.140625 "/></g></g></g><g fill="#ffffff" fill-opacity="1"><g transform="translate(3.569074, 49.814983)"><g><path d="M 5.28125 0.15625 C 2.445312 0.15625 1.03125 -0.757812 1.03125 -2.59375 L 1.03125 -7.390625 C 1.03125 -9.316406 2.445312 -10.28125 5.28125 -10.28125 C 8.132812 -10.28125 9.5625 -9.320312 9.5625 -7.40625 L 9.5625 -2.59375 C 9.5625 -1.613281 9.164062 -0.910156 8.375 -0.484375 C 7.59375 -0.0546875 6.5625 0.15625 5.28125 0.15625 Z M 5.3125 -0.859375 C 7.164062 -0.859375 8.09375 -1.441406 8.09375 -2.609375 L 8.09375 -7.4375 C 8.09375 -8.675781 7.160156 -9.296875 5.296875 -9.296875 C 4.390625 -9.296875 3.691406 -9.15625 3.203125 -8.875 C 2.722656 -8.59375 2.484375 -8.113281 2.484375 -7.4375 L 2.484375 -2.609375 C 2.484375 -1.441406 3.425781 -0.859375 5.3125 -0.859375 Z M 5.3125 -0.859375 "/></g></g></g><g fill="#ffffff" fill-opacity="1"><g transform="translate(14.9515, 49.814983)"><g><path d="M 1.3125 -10.125 L 4.9375 -10.125 C 5.800781 -10.125 6.488281 -10.035156 7 -9.859375 C 7.46875 -9.691406 7.78125 -9.484375 7.9375 -9.234375 C 8.09375 -8.984375 8.171875 -8.640625 8.171875 -8.203125 L 8.171875 -6.859375 C 8.171875 -6.453125 8.054688 -6.132812 7.828125 -5.90625 C 7.609375 -5.6875 7.265625 -5.523438 6.796875 -5.421875 L 6.796875 -5.359375 C 7.347656 -5.265625 7.789062 -5.070312 8.125 -4.78125 C 8.457031 -4.5 8.625 -4.144531 8.625 -3.71875 L 8.625 -2.015625 C 8.625 -1.273438 8.347656 -0.753906 7.796875 -0.453125 C 7.253906 -0.148438 6.335938 0 5.046875 0 L 1.3125 0 Z M 4.984375 -5.703125 C 5.617188 -5.703125 6.070312 -5.796875 6.34375 -5.984375 C 6.625 -6.179688 6.765625 -6.488281 6.765625 -6.90625 L 6.765625 -8.078125 C 6.765625 -8.460938 6.625 -8.734375 6.34375 -8.890625 C 6.0625 -9.046875 5.59375 -9.125 4.9375 -9.125 L 2.828125 -9.125 L 2.828125 -5.703125 Z M 5.046875 -1.046875 C 5.804688 -1.046875 6.34375 -1.125 6.65625 -1.28125 C 6.96875 -1.4375 7.125 -1.703125 7.125 -2.078125 L 7.125 -3.609375 C 7.125 -3.878906 7.066406 -4.09375 6.953125 -4.25 C 6.847656 -4.414062 6.679688 -4.535156 6.453125 -4.609375 C 6.222656 -4.671875 6.019531 -4.707031 5.84375 -4.71875 C 5.664062 -4.738281 5.398438 -4.75 5.046875 -4.75 L 2.828125 -4.75 L 2.828125 -1.046875 Z M 5.046875 -1.046875 "/></g></g></g><g fill="#ffffff" fill-opacity="1"><g transform="translate(25.303461, 49.814983)"><g><path d="M 1.3125 -10.125 L 2.828125 -10.125 L 2.828125 -1.0625 L 7.796875 -1.0625 L 7.796875 0 L 1.3125 0 Z M 1.3125 -10.125 "/></g></g></g><g fill="#ffffff" fill-opacity="1"><g transform="translate(34.203412, 49.814983)"><g><path d="M 1.3125 -10.125 L 2.828125 -10.125 L 2.828125 0 L 1.3125 0 Z M 1.3125 -10.125 "/></g></g></g><g fill="#ffffff" fill-opacity="1"><g transform="translate(39.122045, 49.814983)"><g><path d="M 5.265625 0 C 2.421875 0 1 -0.914062 1 -2.75 L 1 -7.390625 C 1 -9.316406 2.421875 -10.28125 5.265625 -10.28125 C 8.109375 -10.28125 9.53125 -9.320312 9.53125 -7.40625 L 9.53125 -3.21875 C 9.53125 -2.257812 9.066406 -1.472656 8.140625 -0.859375 L 10.640625 -0.859375 L 10.640625 0 Z M 5.296875 -1.015625 C 7.148438 -1.015625 8.078125 -1.597656 8.078125 -2.765625 L 8.078125 -7.4375 C 8.078125 -8.675781 7.144531 -9.296875 5.28125 -9.296875 C 4.863281 -9.296875 4.503906 -9.269531 4.203125 -9.21875 C 3.898438 -9.175781 3.613281 -9.09375 3.34375 -8.96875 C 2.75 -8.6875 2.453125 -8.175781 2.453125 -7.4375 L 2.453125 -2.765625 C 2.453125 -1.597656 3.398438 -1.015625 5.296875 -1.015625 Z M 5.296875 -1.015625 "/></g></g></g><g fill="#ffffff" fill-opacity="1"><g transform="translate(50.457628, 49.814983)"><g><path d="M 4.265625 -10.125 L 6.015625 -10.125 L 9.9375 0 L 8.359375 0 L 7.21875 -3.078125 L 2.875 -3.078125 L 1.734375 0 L 0.234375 0 Z M 6.84375 -4.125 L 5.125 -8.6875 L 4.984375 -8.6875 L 3.265625 -4.125 Z M 6.84375 -4.125 "/></g></g></g><g fill="#ffffff" fill-opacity="1"><g transform="translate(61.418496, 49.814983)"><g/></g></g><g fill="#ffffff" fill-opacity="1"><g transform="translate(65.790671, 49.814983)"><g><path d="M 1.3125 -10.125 L 2.828125 -10.125 L 2.828125 0 L 1.3125 0 Z M 1.3125 -10.125 "/></g></g></g><g fill="#ffffff" fill-opacity="1"><g transform="translate(70.709303, 49.814983)"><g><path d="M 3.8125 -9.0625 L 0.375 -9.0625 L 0.375 -10.125 L 8.75 -10.125 L 8.75 -9.0625 L 5.34375 -9.0625 L 5.34375 0 L 3.8125 0 Z M 3.8125 -9.0625 "/></g></g></g><g fill="#ffffff" fill-opacity="1"><g transform="translate(80.624108, 49.814983)"><g/></g></g><g fill="#ffffff" fill-opacity="1"><g transform="translate(84.996282, 49.814983)"><g><path d="M 4.234375 0.15625 C 3.367188 0.15625 2.335938 0.0703125 1.140625 -0.09375 L 1.140625 -1.359375 C 2.347656 -1.097656 3.410156 -0.96875 4.328125 -0.96875 C 5.097656 -0.96875 5.660156 -1.050781 6.015625 -1.21875 C 6.367188 -1.394531 6.546875 -1.71875 6.546875 -2.1875 L 6.546875 -3.5 C 6.546875 -3.9375 6.421875 -4.242188 6.171875 -4.421875 C 5.921875 -4.597656 5.484375 -4.6875 4.859375 -4.6875 L 3.671875 -4.6875 C 2.679688 -4.6875 1.976562 -4.882812 1.5625 -5.28125 C 1.144531 -5.675781 0.9375 -6.289062 0.9375 -7.125 L 0.9375 -7.921875 C 0.9375 -8.472656 1.054688 -8.921875 1.296875 -9.265625 C 1.546875 -9.609375 1.957031 -9.863281 2.53125 -10.03125 C 3.113281 -10.195312 3.910156 -10.28125 4.921875 -10.28125 C 5.597656 -10.28125 6.46875 -10.222656 7.53125 -10.109375 L 7.53125 -8.96875 C 6.34375 -9.144531 5.4375 -9.234375 4.8125 -9.234375 C 3.84375 -9.234375 3.203125 -9.140625 2.890625 -8.953125 C 2.566406 -8.753906 2.40625 -8.425781 2.40625 -7.96875 L 2.40625 -6.828125 C 2.40625 -6.472656 2.53125 -6.210938 2.78125 -6.046875 C 3.039062 -5.890625 3.484375 -5.8125 4.109375 -5.8125 L 5.328125 -5.8125 C 6.023438 -5.8125 6.566406 -5.726562 6.953125 -5.5625 C 7.347656 -5.394531 7.625 -5.140625 7.78125 -4.796875 C 7.9375 -4.460938 8.015625 -4.007812 8.015625 -3.4375 L 8.015625 -2.703125 C 8.015625 -1.984375 7.882812 -1.414062 7.625 -1 C 7.363281 -0.582031 6.957031 -0.285156 6.40625 -0.109375 C 5.851562 0.0664062 5.128906 0.15625 4.234375 0.15625 Z M 4.234375 0.15625 "/></g></g></g><g fill="#ffffff" fill-opacity="1"><g transform="translate(94.661272, 49.814983)"><g><path d="M 5.28125 0.15625 C 2.445312 0.15625 1.03125 -0.757812 1.03125 -2.59375 L 1.03125 -7.390625 C 1.03125 -9.316406 2.445312 -10.28125 5.28125 -10.28125 C 8.132812 -10.28125 9.5625 -9.320312 9.5625 -7.40625 L 9.5625 -2.59375 C 9.5625 -1.613281 9.164062 -0.910156 8.375 -0.484375 C 7.59375 -0.0546875 6.5625 0.15625 5.28125 0.15625 Z M 5.3125 -0.859375 C 7.164062 -0.859375 8.09375 -1.441406 8.09375 -2.609375 L 8.09375 -7.4375 C 8.09375 -8.675781 7.160156 -9.296875 5.296875 -9.296875 C 4.390625 -9.296875 3.691406 -9.15625 3.203125 -8.875 C 2.722656 -8.59375 2.484375 -8.113281 2.484375 -7.4375 L 2.484375 -2.609375 C 2.484375 -1.441406 3.425781 -0.859375 5.3125 -0.859375 Z M 5.3125 -0.859375 "/></g></g></g><g fill="#ffffff" fill-opacity="1"><g transform="translate(106.043702, 49.814983)"><g><path d="M 1.3125 -10.125 L 2.828125 -10.125 L 2.828125 -1.0625 L 7.796875 -1.0625 L 7.796875 0 L 1.3125 0 Z M 1.3125 -10.125 "/></g></g></g><g fill="#ffffff" fill-opacity="1"><g transform="translate(114.943651, 49.814983)"><g><path d="M 5.265625 0.15625 C 4.710938 0.15625 4.226562 0.117188 3.8125 0.046875 C 3.40625 -0.0234375 3.003906 -0.148438 2.609375 -0.328125 C 2.191406 -0.515625 1.867188 -0.800781 1.640625 -1.1875 C 1.421875 -1.570312 1.3125 -2.039062 1.3125 -2.59375 L 1.3125 -10.125 L 2.765625 -10.125 L 2.765625 -2.609375 C 2.765625 -1.972656 2.976562 -1.519531 3.40625 -1.25 C 3.832031 -0.988281 4.460938 -0.859375 5.296875 -0.859375 C 6.128906 -0.859375 6.75 -0.988281 7.15625 -1.25 C 7.5625 -1.519531 7.765625 -1.972656 7.765625 -2.609375 L 7.765625 -10.125 L 9.21875 -10.125 L 9.21875 -2.59375 C 9.21875 -0.757812 7.898438 0.15625 5.265625 0.15625 Z M 5.265625 0.15625 "/></g></g></g><g fill="#ffffff" fill-opacity="1"><g transform="translate(126.279235, 49.814983)"><g><path d="M 3.8125 -9.0625 L 0.375 -9.0625 L 0.375 -10.125 L 8.75 -10.125 L 8.75 -9.0625 L 5.34375 -9.0625 L 5.34375 0 L 3.8125 0 Z M 3.8125 -9.0625 "/></g></g></g><g fill="#ffffff" fill-opacity="1"><g transform="translate(136.194039, 49.814983)"><g><path d="M 1.3125 -10.125 L 2.828125 -10.125 L 2.828125 0 L 1.3125 0 Z M 1.3125 -10.125 "/></g></g></g><g fill="#ffffff" fill-opacity="1"><g transform="translate(141.112672, 49.814983)"><g><path d="M 5.28125 0.15625 C 2.445312 0.15625 1.03125 -0.757812 1.03125 -2.59375 L 1.03125 -7.390625 C 1.03125 -9.316406 2.445312 -10.28125 5.28125 -10.28125 C 8.132812 -10.28125 9.5625 -9.320312 9.5625 -7.40625 L 9.5625 -2.59375 C 9.5625 -1.613281 9.164062 -0.910156 8.375 -0.484375 C 7.59375 -0.0546875 6.5625 0.15625 5.28125 0.15625 Z M 5.3125 -0.859375 C 7.164062 -0.859375 8.09375 -1.441406 8.09375 -2.609375 L 8.09375 -7.4375 C 8.09375 -8.675781 7.160156 -9.296875 5.296875 -9.296875 C 4.390625 -9.296875 3.691406 -9.15625 3.203125 -8.875 C 2.722656 -8.59375 2.484375 -8.113281 2.484375 -7.4375 L 2.484375 -2.609375 C 2.484375 -1.441406 3.425781 -0.859375 5.3125 -0.859375 Z M 5.3125 -0.859375 "/></g></g></g><g fill="#ffffff" fill-opacity="1"><g transform="translate(152.495096, 49.814983)"><g><path d="M 1.3125 -10.125 L 3.140625 -10.125 L 8.640625 -1.765625 L 8.640625 -10.125 L 9.96875 -10.125 L 9.96875 0 L 8.140625 0 L 2.640625 -8.5 L 2.640625 0 L 1.3125 0 Z M 1.3125 -10.125 "/></g></g></g></svg>