<svg xmlns="http://www.w3.org/2000/svg" xmlns:xlink="http://www.w3.org/1999/xlink" width="500" zoomAndPan="magnify" viewBox="0 0 375 374.999991" height="500" preserveAspectRatio="xMidYMid meet" version="1.0"><defs><g/><clipPath id="0b12005936"><path d="M 71 191 L 102.914062 191 L 102.914062 193 L 71 193 Z M 71 191 " clip-rule="nonzero"/></clipPath><clipPath id="fa171279b2"><path d="M 82 160 L 102.914062 160 L 102.914062 183 L 82 183 Z M 82 160 " clip-rule="nonzero"/></clipPath><clipPath id="dedda17b91"><path d="M 82 149 L 102.914062 149 L 102.914062 172 L 82 172 Z M 82 149 " clip-rule="nonzero"/></clipPath><clipPath id="0137387ca1"><path d="M 38 147.1875 L 44 147.1875 L 44 153 L 38 153 Z M 38 147.1875 " clip-rule="nonzero"/></clipPath><clipPath id="3497ce9c56"><path d="M 27.523438 158 L 33 158 L 33 164 L 27.523438 164 Z M 27.523438 158 " clip-rule="nonzero"/></clipPath><clipPath id="8f893c0d19"><path d="M 66 189 L 73 189 L 73 195.1875 L 66 195.1875 Z M 66 189 " clip-rule="nonzero"/></clipPath><clipPath id="bf0750999d"><path d="M 98 147.1875 L 102.914062 147.1875 L 102.914062 153 L 98 153 Z M 98 147.1875 " clip-rule="nonzero"/></clipPath></defs><rect x="-37.5" width="450" fill="#ffffff" y="-37.499999" height="449.999989" fill-opacity="1"/><rect x="-37.5" width="450" fill="#eb8317" y="-37.499999" height="449.999989" fill-opacity="1"/><g fill="#ffffff" fill-opacity="1"><g transform="translate(19.556398, 199.189163)"><g><path d="M 32.703125 0.90625 C 29.460938 0.90625 26.472656 0.691406 23.734375 0.265625 C 21.003906 -0.148438 18.171875 -0.867188 15.234375 -1.890625 C 12.046875 -2.972656 9.550781 -4.726562 7.75 -7.15625 C 5.945312 -9.59375 5.046875 -12.554688 5.046875 -16.046875 L 5.046875 -41.625 C 5.046875 -44.507812 5.691406 -47.09375 6.984375 -49.375 C 8.273438 -51.65625 9.941406 -53.457031 11.984375 -54.78125 C 13.785156 -55.925781 16.007812 -56.890625 18.65625 -57.671875 C 21.300781 -58.453125 23.765625 -58.929688 26.046875 -59.109375 C 28.148438 -59.285156 30.367188 -59.375 32.703125 -59.375 C 35.472656 -59.375 37.878906 -59.269531 39.921875 -59.0625 C 41.960938 -58.851562 44.242188 -58.421875 46.765625 -57.765625 C 49.648438 -56.921875 52.019531 -55.894531 53.875 -54.6875 C 55.738281 -53.488281 57.304688 -51.8125 58.578125 -49.65625 C 59.890625 -47.425781 60.546875 -44.75 60.546875 -41.625 L 60.546875 -16.046875 C 60.546875 -12.796875 59.691406 -10 57.984375 -7.65625 C 56.273438 -5.3125 53.914062 -3.539062 50.90625 -2.34375 C 45.5 -0.175781 39.429688 0.90625 32.703125 0.90625 Z M 32.890625 -9.09375 C 34.867188 -9.09375 36.535156 -9.164062 37.890625 -9.3125 C 39.242188 -9.46875 40.640625 -9.757812 42.078125 -10.1875 C 43.523438 -10.601562 44.625 -11.304688 45.375 -12.296875 C 46.125 -13.285156 46.5 -14.535156 46.5 -16.046875 L 46.5 -41.71875 C 46.5 -44.476562 45.382812 -46.441406 43.15625 -47.609375 C 40.9375 -48.785156 37.484375 -49.375 32.796875 -49.375 C 28.109375 -49.375 24.65625 -48.800781 22.4375 -47.65625 C 20.21875 -46.519531 19.109375 -44.539062 19.109375 -41.71875 L 19.109375 -16.046875 C 19.109375 -14.535156 19.5 -13.285156 20.28125 -12.296875 C 21.0625 -11.304688 22.203125 -10.601562 23.703125 -10.1875 C 25.140625 -9.757812 26.535156 -9.46875 27.890625 -9.3125 C 29.242188 -9.164062 30.910156 -9.09375 32.890625 -9.09375 Z M 32.890625 -9.09375 "/></g></g></g><g clip-path="url(#0b12005936)"><path fill="#000000" d="M 72.0625 191.980469 L 103.550781 191.980469 C 103.828125 191.980469 104.054688 192.207031 104.054688 192.484375 C 104.054688 192.765625 103.828125 192.992188 103.550781 192.992188 L 72.0625 192.992188 C 71.785156 192.992188 71.5625 192.765625 71.5625 192.484375 C 71.5625 192.207031 71.785156 191.980469 72.0625 191.980469 Z M 72.0625 191.980469 " fill-opacity="1" fill-rule="nonzero"/></g><g clip-path="url(#fa171279b2)"><path fill="#000000" d="M 103.199219 182.265625 L 82.203125 161.105469 C 82.007812 160.910156 82.007812 160.589844 82.203125 160.390625 C 82.402344 160.191406 82.71875 160.191406 82.914062 160.390625 L 103.90625 181.546875 C 104.101562 181.746094 104.101562 182.066406 103.90625 182.265625 C 103.710938 182.460938 103.394531 182.460938 103.199219 182.265625 Z M 103.199219 182.265625 " fill-opacity="1" fill-rule="nonzero"/></g><path fill="#000000" d="M 82.558594 161.253906 L 61.566406 161.253906 C 61.289062 161.253906 61.066406 161.027344 61.066406 160.75 C 61.066406 160.46875 61.289062 160.242188 61.566406 160.242188 L 82.558594 160.242188 C 82.835938 160.242188 83.0625 160.46875 83.0625 160.75 C 83.0625 161.027344 82.835938 161.253906 82.558594 161.253906 Z M 82.558594 161.253906 " fill-opacity="1" fill-rule="nonzero"/><path fill="#000000" d="M 93.410156 171.683594 L 82.914062 182.265625 C 82.71875 182.460938 82.402344 182.460938 82.203125 182.265625 C 82.007812 182.066406 82.007812 181.746094 82.203125 181.546875 L 92.699219 170.96875 C 92.898438 170.773438 93.214844 170.773438 93.410156 170.96875 C 93.605469 171.167969 93.605469 171.488281 93.410156 171.683594 Z M 93.410156 171.683594 " fill-opacity="1" fill-rule="nonzero"/><path fill="#000000" d="M 82.558594 182.414062 L 51.070312 182.414062 C 50.792969 182.414062 50.570312 182.1875 50.570312 181.90625 C 50.570312 181.628906 50.792969 181.402344 51.070312 181.402344 L 82.558594 181.402344 C 82.835938 181.402344 83.0625 181.628906 83.0625 181.90625 C 83.0625 182.1875 82.835938 182.414062 82.558594 182.414062 Z M 82.558594 182.414062 " fill-opacity="1" fill-rule="nonzero"/><g clip-path="url(#dedda17b91)"><path fill="#000000" d="M 103.199219 171.683594 L 82.203125 150.527344 C 82.007812 150.328125 82.007812 150.007812 82.203125 149.8125 C 82.402344 149.613281 82.71875 149.613281 82.914062 149.8125 L 103.90625 170.96875 C 104.101562 171.167969 104.101562 171.488281 103.90625 171.683594 C 103.710938 171.882812 103.394531 171.882812 103.199219 171.683594 Z M 103.199219 171.683594 " fill-opacity="1" fill-rule="nonzero"/></g><path fill="#000000" d="M 82.558594 150.675781 L 40.574219 150.675781 C 40.296875 150.675781 40.070312 150.449219 40.070312 150.167969 C 40.070312 149.890625 40.296875 149.664062 40.574219 149.664062 L 82.558594 149.664062 C 82.835938 149.664062 83.0625 149.890625 83.0625 150.167969 C 83.0625 150.449219 82.835938 150.675781 82.558594 150.675781 Z M 82.558594 150.675781 " fill-opacity="1" fill-rule="nonzero"/><path fill="#000000" d="M 61.921875 150.527344 L 51.425781 161.105469 C 51.230469 161.304688 50.910156 161.304688 50.714844 161.105469 C 50.519531 160.910156 50.519531 160.589844 50.714844 160.390625 L 61.210938 149.8125 C 61.40625 149.613281 61.726562 149.613281 61.921875 149.8125 C 62.117188 150.007812 62.117188 150.328125 61.921875 150.527344 Z M 61.921875 150.527344 " fill-opacity="1" fill-rule="nonzero"/><path fill="#000000" d="M 51.070312 161.253906 L 30.078125 161.253906 C 29.800781 161.253906 29.574219 161.027344 29.574219 160.75 C 29.574219 160.46875 29.800781 160.242188 30.078125 160.242188 L 51.070312 160.242188 C 51.347656 160.242188 51.574219 160.46875 51.574219 160.75 C 51.574219 161.027344 51.347656 161.253906 51.070312 161.253906 Z M 51.070312 161.253906 " fill-opacity="1" fill-rule="nonzero"/><path fill="#000000" d="M 48.609375 181.753906 C 48.691406 180.382812 49.863281 179.339844 51.222656 179.425781 C 52.582031 179.507812 53.617188 180.6875 53.53125 182.058594 C 53.449219 183.429688 52.277344 184.472656 50.917969 184.386719 C 49.558594 184.304688 48.523438 183.125 48.609375 181.753906 Z M 48.609375 181.753906 " fill-opacity="1" fill-rule="nonzero"/><path fill="#000000" d="M 59.105469 160.597656 L 59.105469 160.59375 C 59.1875 159.226562 60.359375 158.183594 61.71875 158.265625 C 63.078125 158.351562 64.113281 159.53125 64.027344 160.902344 C 63.945312 162.269531 62.773438 163.3125 61.414062 163.230469 C 60.054688 163.144531 59.019531 161.964844 59.105469 160.597656 Z M 59.105469 160.597656 " fill-opacity="1" fill-rule="nonzero"/><g clip-path="url(#0137387ca1)"><path fill="#000000" d="M 38.113281 150.015625 C 38.195312 148.644531 39.367188 147.601562 40.726562 147.6875 C 42.085938 147.773438 43.121094 148.953125 43.035156 150.320312 C 42.953125 151.691406 41.78125 152.734375 40.421875 152.652344 C 39.0625 152.566406 38.027344 151.386719 38.113281 150.015625 Z M 38.113281 150.015625 " fill-opacity="1" fill-rule="nonzero"/></g><g clip-path="url(#3497ce9c56)"><path fill="#000000" d="M 27.617188 160.597656 L 27.617188 160.59375 C 27.699219 159.226562 28.871094 158.183594 30.230469 158.265625 C 31.589844 158.351562 32.625 159.53125 32.539062 160.902344 C 32.457031 162.269531 31.285156 163.3125 29.925781 163.230469 C 28.566406 163.144531 27.53125 161.964844 27.617188 160.597656 Z M 27.617188 160.597656 " fill-opacity="1" fill-rule="nonzero"/></g><g clip-path="url(#8f893c0d19)"><path fill="#000000" d="M 66.773438 192.167969 C 66.878906 190.691406 68.148438 189.578125 69.617188 189.683594 C 71.082031 189.789062 72.183594 191.070312 72.082031 192.546875 C 71.976562 194.023438 70.703125 195.136719 69.238281 195.03125 C 67.773438 194.925781 66.667969 193.644531 66.773438 192.167969 M 67.828125 192.242188 C 67.765625 193.132812 68.433594 193.902344 69.3125 193.964844 C 70.195312 194.03125 70.960938 193.359375 71.023438 192.472656 C 71.085938 191.582031 70.421875 190.808594 69.539062 190.746094 C 68.660156 190.683594 67.890625 191.355469 67.828125 192.242188 Z M 67.828125 192.242188 " fill-opacity="1" fill-rule="nonzero"/></g><g clip-path="url(#bf0750999d)"><path fill="#000000" d="M 98.359375 149.847656 C 98.464844 148.371094 99.734375 147.257812 101.203125 147.363281 C 102.667969 147.464844 103.769531 148.75 103.667969 150.226562 C 103.5625 151.703125 102.289062 152.816406 100.824219 152.710938 C 99.359375 152.605469 98.257812 151.324219 98.359375 149.847656 M 99.417969 149.921875 C 99.355469 150.8125 100.019531 151.582031 100.898438 151.644531 C 101.78125 151.707031 102.546875 151.039062 102.609375 150.148438 C 102.671875 149.261719 102.007812 148.488281 101.125 148.425781 C 100.246094 148.363281 99.480469 149.03125 99.417969 149.921875 Z M 99.417969 149.921875 " fill-opacity="1" fill-rule="nonzero"/></g><g fill="#ffffff" fill-opacity="1"><g transform="translate(83.149701, 199.743368)"><g><path d="M 6.296875 -58.453125 L 29.984375 -58.453125 C 35.566406 -58.453125 39.875 -58.046875 42.90625 -57.234375 C 45.945312 -56.421875 48.097656 -55.128906 49.359375 -53.359375 C 50.617188 -51.585938 51.25 -49.113281 51.25 -45.9375 L 51.25 -38.734375 C 51.25 -37.109375 50.601562 -35.570312 49.3125 -34.125 C 48.019531 -32.6875 46.503906 -31.695312 44.765625 -31.15625 L 44.765625 -30.71875 C 47.046875 -30.46875 49.128906 -29.488281 51.015625 -27.78125 C 52.910156 -26.070312 53.859375 -24.164062 53.859375 -22.0625 L 53.859375 -13.0625 C 53.859375 -8.3125 51.96875 -4.945312 48.1875 -2.96875 C 44.40625 -0.988281 38.550781 0 30.625 0 L 6.296875 0 Z M 29.984375 -34.671875 C 32.210938 -34.671875 33.863281 -34.847656 34.9375 -35.203125 C 36.019531 -35.566406 36.753906 -36.15625 37.140625 -36.96875 C 37.535156 -37.78125 37.734375 -38.96875 37.734375 -40.53125 L 37.734375 -43.40625 C 37.734375 -44.789062 37.550781 -45.828125 37.1875 -46.515625 C 36.832031 -47.203125 36.097656 -47.695312 34.984375 -48 C 33.878906 -48.300781 32.125 -48.453125 29.71875 -48.453125 L 20.359375 -48.453125 L 20.359375 -34.671875 Z M 30.34375 -10 C 33.769531 -10 36.203125 -10.390625 37.640625 -11.171875 C 39.085938 -11.953125 39.8125 -13.210938 39.8125 -14.953125 L 39.8125 -19.640625 C 39.8125 -21.796875 39.253906 -23.320312 38.140625 -24.21875 C 37.023438 -25.125 35.0625 -25.578125 32.25 -25.578125 L 20.359375 -25.578125 L 20.359375 -10 Z M 30.34375 -10 "/></g></g></g><g fill="#ffffff" fill-opacity="1"><g transform="translate(140.343022, 199.743368)"><g><path d="M 6.296875 -58.453125 L 20.359375 -58.453125 L 20.359375 -10 L 49.078125 -10 L 49.078125 0 L 6.296875 0 Z M 6.296875 -58.453125 "/></g></g></g><g fill="#ffffff" fill-opacity="1"><g transform="translate(192.582585, 199.743368)"><g><path d="M 6.296875 -58.453125 L 20.359375 -58.453125 L 20.359375 0 L 6.296875 0 Z M 6.296875 -58.453125 "/></g></g></g><g fill="#ffffff" fill-opacity="1"><g transform="translate(219.242781, 199.743368)"><g><path d="M 32.6875 0.90625 C 29.445312 0.90625 26.460938 0.691406 23.734375 0.265625 C 21.003906 -0.148438 18.164062 -0.867188 15.21875 -1.890625 C 12.039062 -2.972656 9.550781 -4.726562 7.75 -7.15625 C 5.945312 -9.59375 5.046875 -12.550781 5.046875 -16.03125 L 5.046875 -41.609375 C 5.046875 -44.492188 5.691406 -47.078125 6.984375 -49.359375 C 8.273438 -51.640625 9.941406 -53.441406 11.984375 -54.765625 C 13.785156 -55.898438 16.003906 -56.859375 18.640625 -57.640625 C 21.285156 -58.421875 23.75 -58.898438 26.03125 -59.078125 C 28.132812 -59.253906 30.351562 -59.34375 32.6875 -59.34375 C 35.445312 -59.34375 37.847656 -59.238281 39.890625 -59.03125 C 41.929688 -58.820312 44.21875 -58.390625 46.75 -57.734375 C 49.625 -56.890625 51.992188 -55.863281 53.859375 -54.65625 C 55.722656 -53.457031 57.285156 -51.78125 58.546875 -49.625 C 59.859375 -47.40625 60.515625 -44.734375 60.515625 -41.609375 L 60.515625 -25.671875 C 60.515625 -16.785156 58.054688 -11.59375 53.140625 -10.09375 L 65.921875 -10.09375 L 65.921875 0 L 46.75 0 C 46.082031 0 44.039062 0.148438 40.625 0.453125 C 37.195312 0.753906 34.550781 0.90625 32.6875 0.90625 Z M 32.875 -9.09375 C 34.851562 -9.09375 36.515625 -9.164062 37.859375 -9.3125 C 39.210938 -9.46875 40.613281 -9.753906 42.0625 -10.171875 C 43.5 -10.597656 44.59375 -11.304688 45.34375 -12.296875 C 46.09375 -13.285156 46.46875 -14.53125 46.46875 -16.03125 L 46.46875 -41.703125 C 46.46875 -44.460938 45.359375 -46.425781 43.140625 -47.59375 C 40.921875 -48.769531 37.46875 -49.359375 32.78125 -49.359375 C 28.101562 -49.359375 24.648438 -48.785156 22.421875 -47.640625 C 20.203125 -46.503906 19.09375 -44.523438 19.09375 -41.703125 L 19.09375 -16.03125 C 19.09375 -14.53125 19.484375 -13.285156 20.265625 -12.296875 C 21.046875 -11.304688 22.1875 -10.597656 23.6875 -10.171875 C 25.125 -9.753906 26.519531 -9.46875 27.875 -9.3125 C 29.226562 -9.164062 30.894531 -9.09375 32.875 -9.09375 Z M 32.875 -9.09375 "/></g></g></g><g fill="#10375c" fill-opacity="1"><g transform="translate(25.621193, 234.244847)"><g><path d="M 10.78125 0.3125 C 5 0.3125 2.109375 -1.554688 2.109375 -5.296875 L 2.109375 -15.078125 C 2.109375 -19.035156 5 -21.015625 10.78125 -21.015625 C 16.625 -21.015625 19.546875 -19.046875 19.546875 -15.109375 L 19.546875 -5.296875 C 19.546875 -3.296875 18.738281 -1.859375 17.125 -0.984375 C 15.507812 -0.117188 13.394531 0.3125 10.78125 0.3125 Z M 10.84375 -1.75 C 14.644531 -1.75 16.546875 -2.941406 16.546875 -5.328125 L 16.546875 -15.1875 C 16.546875 -17.726562 14.632812 -19 10.8125 -19 C 8.957031 -19 7.535156 -18.710938 6.546875 -18.140625 C 5.566406 -17.566406 5.078125 -16.582031 5.078125 -15.1875 L 5.078125 -5.328125 C 5.078125 -2.941406 7 -1.75 10.84375 -1.75 Z M 10.84375 -1.75 "/></g></g></g><g fill="#10375c" fill-opacity="1"><g transform="translate(48.863683, 234.244847)"><g><path d="M 2.671875 -20.703125 L 10.078125 -20.703125 C 11.835938 -20.703125 13.238281 -20.519531 14.28125 -20.15625 C 15.238281 -19.8125 15.878906 -19.382812 16.203125 -18.875 C 16.535156 -18.363281 16.703125 -17.664062 16.703125 -16.78125 L 16.703125 -14 C 16.703125 -13.164062 16.46875 -12.519531 16 -12.0625 C 15.539062 -11.613281 14.832031 -11.28125 13.875 -11.0625 L 13.875 -10.9375 C 15 -10.75 15.90625 -10.359375 16.59375 -9.765625 C 17.289062 -9.179688 17.640625 -8.457031 17.640625 -7.59375 L 17.640625 -4.109375 C 17.640625 -2.597656 17.070312 -1.535156 15.9375 -0.921875 C 14.8125 -0.304688 12.929688 0 10.296875 0 L 2.671875 0 Z M 10.171875 -11.640625 C 11.472656 -11.640625 12.40625 -11.832031 12.96875 -12.21875 C 13.53125 -12.613281 13.8125 -13.238281 13.8125 -14.09375 L 13.8125 -16.515625 C 13.8125 -17.304688 13.523438 -17.859375 12.953125 -18.171875 C 12.378906 -18.492188 11.421875 -18.65625 10.078125 -18.65625 L 5.765625 -18.65625 L 5.765625 -11.640625 Z M 10.296875 -2.140625 C 11.847656 -2.140625 12.941406 -2.296875 13.578125 -2.609375 C 14.222656 -2.929688 14.546875 -3.472656 14.546875 -4.234375 L 14.546875 -7.359375 C 14.546875 -7.921875 14.429688 -8.363281 14.203125 -8.6875 C 13.984375 -9.019531 13.640625 -9.257812 13.171875 -9.40625 C 12.703125 -9.53125 12.285156 -9.609375 11.921875 -9.640625 C 11.566406 -9.671875 11.023438 -9.6875 10.296875 -9.6875 L 5.765625 -9.6875 L 5.765625 -2.140625 Z M 10.296875 -2.140625 "/></g></g></g><g fill="#10375c" fill-opacity="1"><g transform="translate(70.001991, 234.244847)"><g><path d="M 2.671875 -20.703125 L 5.765625 -20.703125 L 5.765625 -2.171875 L 15.953125 -2.171875 L 15.953125 0 L 2.671875 0 Z M 2.671875 -20.703125 "/></g></g></g><g fill="#10375c" fill-opacity="1"><g transform="translate(88.175315, 234.244847)"><g><path d="M 2.671875 -20.703125 L 5.765625 -20.703125 L 5.765625 0 L 2.671875 0 Z M 2.671875 -20.703125 "/></g></g></g><g fill="#10375c" fill-opacity="1"><g transform="translate(98.218872, 234.244847)"><g><path d="M 10.75 0 C 4.945312 0 2.046875 -1.867188 2.046875 -5.609375 L 2.046875 -15.078125 C 2.046875 -19.035156 4.945312 -21.015625 10.75 -21.015625 C 16.570312 -21.015625 19.484375 -19.046875 19.484375 -15.109375 L 19.484375 -6.5625 C 19.484375 -4.613281 18.535156 -3.007812 16.640625 -1.75 L 21.75 -1.75 L 21.75 0 Z M 10.8125 -2.078125 C 14.613281 -2.078125 16.515625 -3.265625 16.515625 -5.640625 L 16.515625 -15.1875 C 16.515625 -17.726562 14.601562 -19 10.78125 -19 C 9.925781 -19 9.191406 -18.953125 8.578125 -18.859375 C 7.960938 -18.765625 7.378906 -18.59375 6.828125 -18.34375 C 5.609375 -17.757812 5 -16.707031 5 -15.1875 L 5 -5.640625 C 5 -3.265625 6.9375 -2.078125 10.8125 -2.078125 Z M 10.8125 -2.078125 "/></g></g></g><g fill="#10375c" fill-opacity="1"><g transform="translate(121.365718, 234.244847)"><g><path d="M 8.703125 -20.703125 L 12.28125 -20.703125 L 20.3125 0 L 17.09375 0 L 14.734375 -6.28125 L 5.875 -6.28125 L 3.546875 0 L 0.484375 0 Z M 13.96875 -8.421875 L 10.453125 -17.765625 L 10.171875 -17.765625 L 6.671875 -8.421875 Z M 13.96875 -8.421875 "/></g></g></g><g fill="#10375c" fill-opacity="1"><g transform="translate(143.747405, 234.244847)"><g/></g></g><g fill="#10375c" fill-opacity="1"><g transform="translate(152.675097, 234.244847)"><g><path d="M 2.671875 -20.703125 L 5.765625 -20.703125 L 5.765625 0 L 2.671875 0 Z M 2.671875 -20.703125 "/></g></g></g><g fill="#10375c" fill-opacity="1"><g transform="translate(162.718647, 234.244847)"><g><path d="M 7.78125 -18.53125 L 0.765625 -18.53125 L 0.765625 -20.703125 L 17.890625 -20.703125 L 17.890625 -18.53125 L 10.90625 -18.53125 L 10.90625 0 L 7.78125 0 Z M 7.78125 -18.53125 "/></g></g></g><g fill="#10375c" fill-opacity="1"><g transform="translate(182.964273, 234.244847)"><g/></g></g><g fill="#10375c" fill-opacity="1"><g transform="translate(191.891964, 234.244847)"><g><path d="M 8.640625 0.3125 C 6.878906 0.3125 4.773438 0.144531 2.328125 -0.1875 L 2.328125 -2.78125 C 4.796875 -2.25 6.960938 -1.984375 8.828125 -1.984375 C 10.398438 -1.984375 11.546875 -2.15625 12.265625 -2.5 C 12.992188 -2.851562 13.359375 -3.507812 13.359375 -4.46875 L 13.359375 -7.140625 C 13.359375 -8.035156 13.101562 -8.660156 12.59375 -9.015625 C 12.082031 -9.378906 11.191406 -9.5625 9.921875 -9.5625 L 7.5 -9.5625 C 5.476562 -9.5625 4.039062 -9.960938 3.1875 -10.765625 C 2.332031 -11.578125 1.90625 -12.835938 1.90625 -14.546875 L 1.90625 -16.203125 C 1.90625 -17.328125 2.15625 -18.238281 2.65625 -18.9375 C 3.15625 -19.644531 3.992188 -20.164062 5.171875 -20.5 C 6.359375 -20.84375 7.984375 -21.015625 10.046875 -21.015625 C 11.429688 -21.015625 13.207031 -20.898438 15.375 -20.671875 L 15.375 -18.34375 C 12.945312 -18.695312 11.097656 -18.875 9.828125 -18.875 C 7.847656 -18.875 6.539062 -18.6875 5.90625 -18.3125 C 5.238281 -17.90625 4.90625 -17.234375 4.90625 -16.296875 L 4.90625 -13.9375 C 4.90625 -13.21875 5.164062 -12.691406 5.6875 -12.359375 C 6.207031 -12.023438 7.109375 -11.859375 8.390625 -11.859375 L 10.875 -11.859375 C 12.300781 -11.859375 13.410156 -11.6875 14.203125 -11.34375 C 15.003906 -11.007812 15.566406 -10.492188 15.890625 -9.796875 C 16.222656 -9.109375 16.390625 -8.179688 16.390625 -7.015625 L 16.390625 -5.515625 C 16.390625 -4.046875 16.117188 -2.882812 15.578125 -2.03125 C 15.035156 -1.1875 14.203125 -0.582031 13.078125 -0.21875 C 11.953125 0.132812 10.472656 0.3125 8.640625 0.3125 Z M 8.640625 0.3125 "/></g></g></g><g fill="#10375c" fill-opacity="1"><g transform="translate(211.627483, 234.244847)"><g><path d="M 10.78125 0.3125 C 5 0.3125 2.109375 -1.554688 2.109375 -5.296875 L 2.109375 -15.078125 C 2.109375 -19.035156 5 -21.015625 10.78125 -21.015625 C 16.625 -21.015625 19.546875 -19.046875 19.546875 -15.109375 L 19.546875 -5.296875 C 19.546875 -3.296875 18.738281 -1.859375 17.125 -0.984375 C 15.507812 -0.117188 13.394531 0.3125 10.78125 0.3125 Z M 10.84375 -1.75 C 14.644531 -1.75 16.546875 -2.941406 16.546875 -5.328125 L 16.546875 -15.1875 C 16.546875 -17.726562 14.632812 -19 10.8125 -19 C 8.957031 -19 7.535156 -18.710938 6.546875 -18.140625 C 5.566406 -17.566406 5.078125 -16.582031 5.078125 -15.1875 L 5.078125 -5.328125 C 5.078125 -2.941406 7 -1.75 10.84375 -1.75 Z M 10.84375 -1.75 "/></g></g></g><g fill="#10375c" fill-opacity="1"><g transform="translate(234.869981, 234.244847)"><g><path d="M 2.671875 -20.703125 L 5.765625 -20.703125 L 5.765625 -2.171875 L 15.953125 -2.171875 L 15.953125 0 L 2.671875 0 Z M 2.671875 -20.703125 "/></g></g></g><g fill="#10375c" fill-opacity="1"><g transform="translate(253.043314, 234.244847)"><g><path d="M 10.75 0.3125 C 9.625 0.3125 8.640625 0.238281 7.796875 0.09375 C 6.953125 -0.0507812 6.128906 -0.304688 5.328125 -0.671875 C 4.472656 -1.054688 3.816406 -1.640625 3.359375 -2.421875 C 2.898438 -3.210938 2.671875 -4.171875 2.671875 -5.296875 L 2.671875 -20.703125 L 5.640625 -20.703125 L 5.640625 -5.328125 C 5.640625 -4.023438 6.078125 -3.101562 6.953125 -2.5625 C 7.828125 -2.019531 9.113281 -1.75 10.8125 -1.75 C 12.507812 -1.75 13.773438 -2.019531 14.609375 -2.5625 C 15.453125 -3.101562 15.875 -4.023438 15.875 -5.328125 L 15.875 -20.703125 L 18.84375 -20.703125 L 18.84375 -5.296875 C 18.84375 -1.554688 16.144531 0.3125 10.75 0.3125 Z M 10.75 0.3125 "/></g></g></g><g fill="#10375c" fill-opacity="1"><g transform="translate(276.190155, 234.244847)"><g><path d="M 7.78125 -18.53125 L 0.765625 -18.53125 L 0.765625 -20.703125 L 17.890625 -20.703125 L 17.890625 -18.53125 L 10.90625 -18.53125 L 10.90625 0 L 7.78125 0 Z M 7.78125 -18.53125 "/></g></g></g><g fill="#10375c" fill-opacity="1"><g transform="translate(296.43578, 234.244847)"><g><path d="M 2.671875 -20.703125 L 5.765625 -20.703125 L 5.765625 0 L 2.671875 0 Z M 2.671875 -20.703125 "/></g></g></g><g fill="#10375c" fill-opacity="1"><g transform="translate(306.479343, 234.244847)"><g><path d="M 10.78125 0.3125 C 5 0.3125 2.109375 -1.554688 2.109375 -5.296875 L 2.109375 -15.078125 C 2.109375 -19.035156 5 -21.015625 10.78125 -21.015625 C 16.625 -21.015625 19.546875 -19.046875 19.546875 -15.109375 L 19.546875 -5.296875 C 19.546875 -3.296875 18.738281 -1.859375 17.125 -0.984375 C 15.507812 -0.117188 13.394531 0.3125 10.78125 0.3125 Z M 10.84375 -1.75 C 14.644531 -1.75 16.546875 -2.941406 16.546875 -5.328125 L 16.546875 -15.1875 C 16.546875 -17.726562 14.632812 -19 10.8125 -19 C 8.957031 -19 7.535156 -18.710938 6.546875 -18.140625 C 5.566406 -17.566406 5.078125 -16.582031 5.078125 -15.1875 L 5.078125 -5.328125 C 5.078125 -2.941406 7 -1.75 10.84375 -1.75 Z M 10.84375 -1.75 "/></g></g></g><g fill="#10375c" fill-opacity="1"><g transform="translate(329.721829, 234.244847)"><g><path d="M 2.671875 -20.703125 L 6.40625 -20.703125 L 17.671875 -3.609375 L 17.671875 -20.703125 L 20.375 -20.703125 L 20.375 0 L 16.640625 0 L 5.390625 -17.375 L 5.390625 0 L 2.671875 0 Z M 2.671875 -20.703125 "/></g></g></g><g fill="#ffffff" fill-opacity="1"><g transform="translate(290.681264, 199.094327)"><g><path d="M 21.8125 -58.484375 L 38.921875 -58.484375 L 60.015625 0 L 45.78125 0 L 40.546875 -15.40625 L 19.1875 -15.40625 L 14.0625 0 L 0.1875 0 Z M 37.484375 -24.78125 L 30.09375 -46.765625 L 29.734375 -46.765625 L 22.34375 -24.78125 Z M 37.484375 -24.78125 "/></g></g></g></svg>